<svg width="34" height="34" viewBox="0 0 34 34" fill="none" xmlns="http://www.w3.org/2000/svg">
<path d="M15.5835 21.25C19.8335 21.25 26.9168 26.9167 26.9168 26.9167V4.25C26.9168 4.25 19.8335 9.91667 15.5835 9.91667M15.5835 21.25V9.91667M15.5835 21.25H8.50016C5.37075 21.25 2.8335 19.9906 2.8335 15.5833C2.8335 11.1761 5.37075 9.91667 8.50016 9.91667H15.5835M7.0835 21.25L11.3335 32.5833H17.0002L12.7502 21.25M26.9168 19.8333C27.4749 19.8333 28.0276 19.7234 28.5432 19.5098C29.0589 19.2962 29.5274 18.9832 29.922 18.5885C30.3167 18.1939 30.6297 17.7254 30.8433 17.2097C31.0569 16.6941 31.1668 16.1415 31.1668 15.5833C31.1668 15.0252 31.0569 14.4726 30.8433 13.9569C30.6297 13.4413 30.3167 12.9728 29.922 12.5781C29.5274 12.1835 29.0589 11.8704 28.5432 11.6568C28.0276 11.4433 27.4749 11.3333 26.9168 11.3333M15.5835 26.9167C17.0002 26.9167 19.8335 25.5 19.8335 22.6667" stroke="#E8F5FC" stroke-width="2"/>
</svg>
