<svg width="44" height="38" viewBox="0 0 44 38" fill="none" xmlns="http://www.w3.org/2000/svg">
<path d="M6 35.9914C7.06087 35.9914 8.07828 35.5714 8.82843 34.8238C9.57857 34.0762 10 33.0623 10 32.005C10 30.9477 9.57857 29.9338 8.82843 29.1862C8.07828 28.4386 7.06087 28.0186 6 28.0186C4.93913 28.0186 3.92172 28.4386 3.17157 29.1862C2.42143 29.9338 2 30.9477 2 32.005C2 33.0623 2.42143 34.0762 3.17157 34.8238C3.92172 35.5714 4.93913 35.9914 6 35.9914Z" fill="#6294DF" stroke="#6294DF" stroke-width="4" stroke-linejoin="round"/>
<path d="M6 6.09288C6.53043 6.09288 7.03914 5.88288 7.41421 5.50908C7.78929 5.13528 8 4.6283 8 4.09966C8 3.57103 7.78929 3.06405 7.41421 2.69025C7.03914 2.31644 6.53043 2.10645 6 2.10645C5.46957 2.10645 4.96086 2.31644 4.58579 2.69025C4.21071 3.06405 4 3.57103 4 4.09966C4 4.6283 4.21071 5.13528 4.58579 5.50908C4.96086 5.88288 5.46957 6.09288 6 6.09288ZM6 20.0454C6.53043 20.0454 7.03914 19.8354 7.41421 19.4616C7.78929 19.0878 8 18.5808 8 18.0522C8 17.5236 7.78929 17.0166 7.41421 16.6428C7.03914 16.269 6.53043 16.059 6 16.059C5.46957 16.059 4.96086 16.269 4.58579 16.6428C4.21071 17.0166 4 17.5236 4 18.0522C4 18.5808 4.21071 19.0878 4.58579 19.4616C4.96086 19.8354 5.46957 20.0454 6 20.0454Z" stroke="#6294DF" stroke-width="4" stroke-linejoin="round"/>
<path d="M18 18.0521H42M18 32.0047H42M18 4.09961H42" stroke="#6294DF" stroke-width="4" stroke-linecap="round" stroke-linejoin="round"/>
</svg>
