<svg width="211" height="96" viewBox="0 0 211 96" fill="none" xmlns="http://www.w3.org/2000/svg">
<g filter="url(#filter0_d_273_75)">
<path d="M17.1729 12.7295H192.621V82.9964H17.1729V12.7295Z" fill="#5289DC"/>
</g>
<g filter="url(#filter1_d_273_75)">
<path d="M12.71 7.58008H188.158V77.847H12.71V7.58008Z" fill="white"/>
<path d="M13.21 8.08008H187.658V77.347H13.21V8.08008Z" stroke="#548ADC"/>
</g>
<g filter="url(#filter2_d_273_75)">
<path d="M12.71 7.58008H188.158V77.847H12.71V7.58008Z" fill="white"/>
<path d="M13.21 8.08008H187.658V77.347H13.21V8.08008Z" stroke="#548ADC"/>
</g>
<path d="M89.0039 60.9961C90.0648 60.9961 91.0822 60.5747 91.8323 59.8245C92.5825 59.0744 93.0039 58.057 93.0039 56.9961C93.0039 55.9352 92.5825 54.9178 91.8323 54.1677C91.0822 53.4175 90.0648 52.9961 89.0039 52.9961C87.943 52.9961 86.9256 53.4175 86.1755 54.1677C85.4253 54.9178 85.0039 55.9352 85.0039 56.9961C85.0039 58.057 85.4253 59.0744 86.1755 59.8245C86.9256 60.5747 87.943 60.9961 89.0039 60.9961Z" fill="#6294DF" stroke="#6294DF" stroke-width="4" stroke-linejoin="round"/>
<path d="M89.0039 30.9961C89.5343 30.9961 90.043 30.7854 90.4181 30.4103C90.7932 30.0352 91.0039 29.5265 91.0039 28.9961C91.0039 28.4657 90.7932 27.957 90.4181 27.5819C90.043 27.2068 89.5343 26.9961 89.0039 26.9961C88.4735 26.9961 87.9648 27.2068 87.5897 27.5819C87.2146 27.957 87.0039 28.4657 87.0039 28.9961C87.0039 29.5265 87.2146 30.0352 87.5897 30.4103C87.9648 30.7854 88.4735 30.9961 89.0039 30.9961ZM89.0039 44.9961C89.5343 44.9961 90.043 44.7854 90.4181 44.4103C90.7932 44.0352 91.0039 43.5265 91.0039 42.9961C91.0039 42.4657 90.7932 41.957 90.4181 41.5819C90.043 41.2068 89.5343 40.9961 89.0039 40.9961C88.4735 40.9961 87.9648 41.2068 87.5897 41.5819C87.2146 41.957 87.0039 42.4657 87.0039 42.9961C87.0039 43.5265 87.2146 44.0352 87.5897 44.4103C87.9648 44.7854 88.4735 44.9961 89.0039 44.9961Z" stroke="#6294DF" stroke-width="4" stroke-linejoin="round"/>
<path d="M101.004 42.9961H125.004M101.004 56.9961H125.004M101.004 28.9961H125.004" stroke="#6294DF" stroke-width="4" stroke-linecap="round" stroke-linejoin="round"/>
<defs>
<filter id="filter0_d_273_75" x="11.1729" y="0.729492" width="199.448" height="94.2671" filterUnits="userSpaceOnUse" color-interpolation-filters="sRGB">
<feFlood flood-opacity="0" result="BackgroundImageFix"/>
<feColorMatrix in="SourceAlpha" type="matrix" values="0 0 0 0 0 0 0 0 0 0 0 0 0 0 0 0 0 0 127 0" result="hardAlpha"/>
<feOffset dx="6"/>
<feGaussianBlur stdDeviation="6"/>
<feComposite in2="hardAlpha" operator="out"/>
<feColorMatrix type="matrix" values="0 0 0 0 0 0 0 0 0 0 0 0 0 0 0 0 0 0 0.12 0"/>
<feBlend mode="normal" in2="BackgroundImageFix" result="effect1_dropShadow_273_75"/>
<feBlend mode="normal" in="SourceGraphic" in2="effect1_dropShadow_273_75" result="shape"/>
</filter>
<filter id="filter1_d_273_75" x="0.709961" y="1.58008" width="199.448" height="94.2671" filterUnits="userSpaceOnUse" color-interpolation-filters="sRGB">
<feFlood flood-opacity="0" result="BackgroundImageFix"/>
<feColorMatrix in="SourceAlpha" type="matrix" values="0 0 0 0 0 0 0 0 0 0 0 0 0 0 0 0 0 0 127 0" result="hardAlpha"/>
<feOffset dy="6"/>
<feGaussianBlur stdDeviation="6"/>
<feComposite in2="hardAlpha" operator="out"/>
<feColorMatrix type="matrix" values="0 0 0 0 1 0 0 0 0 1 0 0 0 0 1 0 0 0 0.12 0"/>
<feBlend mode="normal" in2="BackgroundImageFix" result="effect1_dropShadow_273_75"/>
<feBlend mode="normal" in="SourceGraphic" in2="effect1_dropShadow_273_75" result="shape"/>
</filter>
<filter id="filter2_d_273_75" x="0.709961" y="1.58008" width="199.448" height="94.2671" filterUnits="userSpaceOnUse" color-interpolation-filters="sRGB">
<feFlood flood-opacity="0" result="BackgroundImageFix"/>
<feColorMatrix in="SourceAlpha" type="matrix" values="0 0 0 0 0 0 0 0 0 0 0 0 0 0 0 0 0 0 127 0" result="hardAlpha"/>
<feOffset dy="6"/>
<feGaussianBlur stdDeviation="6"/>
<feComposite in2="hardAlpha" operator="out"/>
<feColorMatrix type="matrix" values="0 0 0 0 1 0 0 0 0 1 0 0 0 0 1 0 0 0 0.12 0"/>
<feBlend mode="normal" in2="BackgroundImageFix" result="effect1_dropShadow_273_75"/>
<feBlend mode="normal" in="SourceGraphic" in2="effect1_dropShadow_273_75" result="shape"/>
</filter>
</defs>
</svg>
