<svg width="48" height="48" viewBox="0 0 48 48" fill="none" xmlns="http://www.w3.org/2000/svg">
<path d="M8 42C9.06087 42 10.0783 41.5786 10.8284 40.8284C11.5786 40.0783 12 39.0609 12 38C12 36.9391 11.5786 35.9217 10.8284 35.1716C10.0783 34.4214 9.06087 34 8 34C6.93913 34 5.92172 34.4214 5.17157 35.1716C4.42143 35.9217 4 36.9391 4 38C4 39.0609 4.42143 40.0783 5.17157 40.8284C5.92172 41.5786 6.93913 42 8 42Z" fill="#6294DF" stroke="#6294DF" stroke-width="4" stroke-linejoin="round"/>
<path d="M8 12C8.53043 12 9.03914 11.7893 9.41421 11.4142C9.78929 11.0391 10 10.5304 10 10C10 9.46957 9.78929 8.96086 9.41421 8.58579C9.03914 8.21071 8.53043 8 8 8C7.46957 8 6.96086 8.21071 6.58579 8.58579C6.21071 8.96086 6 9.46957 6 10C6 10.5304 6.21071 11.0391 6.58579 11.4142C6.96086 11.7893 7.46957 12 8 12ZM8 26C8.53043 26 9.03914 25.7893 9.41421 25.4142C9.78929 25.0391 10 24.5304 10 24C10 23.4696 9.78929 22.9609 9.41421 22.5858C9.03914 22.2107 8.53043 22 8 22C7.46957 22 6.96086 22.2107 6.58579 22.5858C6.21071 22.9609 6 23.4696 6 24C6 24.5304 6.21071 25.0391 6.58579 25.4142C6.96086 25.7893 7.46957 26 8 26Z" stroke="#6294DF" stroke-width="4" stroke-linejoin="round"/>
<path d="M20 24H44M20 38H44M20 10H44" stroke="#6294DF" stroke-width="4" stroke-linecap="round" stroke-linejoin="round"/>
</svg>
