<svg width="140" height="71" viewBox="0 0 140 71" fill="none" xmlns="http://www.w3.org/2000/svg">
<g filter="url(#filter0_d_273_1396)">
<path d="M12 11C12 8.23858 14.2386 6 17 6H123C125.761 6 128 8.23858 128 11V48C128 50.7614 125.761 53 123 53H17C14.2386 53 12 50.7614 12 48V11Z" fill="black"/>
<path d="M17 6.5H123C125.485 6.5 127.5 8.51472 127.5 11V48C127.5 50.4853 125.485 52.5 123 52.5H17C14.5147 52.5 12.5 50.4853 12.5 48V11C12.5 8.51472 14.5147 6.5 17 6.5Z" stroke="#538ADC"/>
</g>
<defs>
<filter id="filter0_d_273_1396" x="0" y="0" width="140" height="71" filterUnits="userSpaceOnUse" color-interpolation-filters="sRGB">
<feFlood flood-opacity="0" result="BackgroundImageFix"/>
<feColorMatrix in="SourceAlpha" type="matrix" values="0 0 0 0 0 0 0 0 0 0 0 0 0 0 0 0 0 0 127 0" result="hardAlpha"/>
<feOffset dy="6"/>
<feGaussianBlur stdDeviation="6"/>
<feComposite in2="hardAlpha" operator="out"/>
<feColorMatrix type="matrix" values="0 0 0 0 1 0 0 0 0 1 0 0 0 0 1 0 0 0 0.12 0"/>
<feBlend mode="normal" in2="BackgroundImageFix" result="effect1_dropShadow_273_1396"/>
<feBlend mode="normal" in="SourceGraphic" in2="effect1_dropShadow_273_1396" result="shape"/>
</filter>
</defs>
</svg>
