<svg width="21" height="22" viewBox="0 0 21 22" fill="none" xmlns="http://www.w3.org/2000/svg">
<path d="M10.5 0C9.34628 0 8.21846 0.339547 7.25917 0.975702C6.29989 1.61186 5.55221 2.51605 5.1107 3.57394C4.66919 4.63183 4.55367 5.7959 4.77875 6.91894C5.00383 8.04199 5.5594 9.07358 6.37521 9.88325C7.19102 10.6929 8.23042 11.2443 9.36197 11.4677C10.4935 11.6911 11.6664 11.5764 12.7323 11.1383C13.7982 10.7001 14.7093 9.95801 15.3502 9.00593C15.9912 8.05386 16.3333 6.93452 16.3333 5.78947C16.3333 4.25401 15.7188 2.78143 14.6248 1.6957C13.5308 0.609961 12.0471 0 10.5 0ZM10.5 9.26316C9.80777 9.26316 9.13108 9.05943 8.5555 8.67774C7.97993 8.29604 7.53133 7.75353 7.26642 7.1188C7.00151 6.48406 6.9322 5.78562 7.06725 5.11179C7.2023 4.43796 7.53564 3.81901 8.02513 3.33321C8.51461 2.8474 9.13825 2.51657 9.81718 2.38254C10.4961 2.2485 11.1999 2.31729 11.8394 2.58021C12.4789 2.84312 13.0256 3.28835 13.4101 3.8596C13.7947 4.43084 14 5.10244 14 5.78947C14 6.71075 13.6313 7.5943 12.9749 8.24574C12.3185 8.89718 11.4283 9.26316 10.5 9.26316ZM21 22V20.8421C21 18.6925 20.1396 16.6309 18.608 15.1108C17.0765 13.5908 14.9993 12.7368 12.8333 12.7368H8.16667C6.00073 12.7368 3.92351 13.5908 2.39196 15.1108C0.860414 16.6309 0 18.6925 0 20.8421V22H2.33333V20.8421C2.33333 19.3066 2.94791 17.8341 4.04188 16.7483C5.13584 15.6626 6.61957 15.0526 8.16667 15.0526H12.8333C14.3804 15.0526 15.8642 15.6626 16.9581 16.7483C18.0521 17.8341 18.6667 19.3066 18.6667 20.8421V22H21Z" fill="#E8F5FC"/>
<path d="M7.53551 1.3924C8.41267 0.810707 9.44433 0.5 10.5 0.5C11.9157 0.5 13.2727 1.05819 14.2726 2.05058C15.2724 3.04285 15.8333 4.38784 15.8333 5.78947C15.8333 6.83479 15.521 7.85694 14.9355 8.7267C14.3499 9.5965 13.5172 10.275 12.5422 10.6758C11.5672 11.0766 10.4941 11.1816 9.45881 10.9772C8.42353 10.7728 7.47307 10.2684 6.72743 9.52837C5.98183 8.78837 5.4745 7.84602 5.269 6.82069C5.06351 5.79538 5.16894 4.73257 5.57213 3.76651C5.97533 2.80042 6.65839 1.97407 7.53551 1.3924ZM8.27917 9.09444C8.93686 9.53059 9.70971 9.76316 10.5 9.76316C11.5597 9.76316 12.5767 9.34541 13.3271 8.60063C14.0776 7.85571 14.5 6.84458 14.5 5.78947C14.5 5.00271 14.2649 4.23393 13.8249 3.58036C13.3849 2.92684 12.76 2.41806 12.0295 2.11776C11.2991 1.81748 10.4955 1.73897 9.72034 1.892C8.94514 2.04504 8.23256 2.42288 7.67291 2.97832C7.11322 3.53381 6.73163 4.24199 6.577 5.01354C6.42236 5.7851 6.50176 6.58481 6.805 7.31137C7.10821 8.0379 7.62143 8.65825 8.27917 9.09444ZM20.5 20.8421V21.5H19.1667V20.8421C19.1667 19.1728 18.4985 17.5727 17.3103 16.3934C16.1223 15.2144 14.5118 14.5526 12.8333 14.5526H8.16667C6.48817 14.5526 4.87768 15.2144 3.68966 16.3934C2.50152 17.5727 1.83333 19.1728 1.83333 20.8421V21.5H0.5V20.8421C0.5 18.8263 1.30681 16.8923 2.74418 15.4657C4.18167 14.039 6.13213 13.2368 8.16667 13.2368H12.8333C14.8679 13.2368 16.8183 14.039 18.2558 15.4657C19.6932 16.8923 20.5 18.8263 20.5 20.8421Z" stroke="#E8F5FC" stroke-opacity="0.5"/>
</svg>
