<svg width="129" height="141" viewBox="0 0 129 141" fill="none" xmlns="http://www.w3.org/2000/svg">
<path d="M64.125 0C57.079 0 50.1913 2.16268 44.3328 6.21456C38.4743 10.2664 33.9082 16.0255 31.2118 22.7635C28.5154 29.5016 27.8099 36.9159 29.1845 44.069C30.5591 51.222 33.9521 57.7925 38.9343 62.9496C43.9166 68.1066 50.2643 71.6186 57.1749 73.0415C64.0855 74.4643 71.2485 73.734 77.7581 70.9431C84.2677 68.1521 89.8316 63.4257 93.7461 57.3617C97.6606 51.2976 99.75 44.1682 99.75 36.875C99.75 27.0951 95.9967 17.7158 89.3157 10.8004C82.6347 3.88503 73.5733 0 64.125 0ZM64.125 59C59.8974 59 55.7648 57.7024 52.2497 55.2713C48.7346 52.8401 45.9949 49.3847 44.3771 45.3419C42.7593 41.2991 42.336 36.8505 43.1607 32.5586C43.9855 28.2668 46.0212 24.3245 49.0106 21.2303C51.9999 18.136 55.8086 16.0288 59.9549 15.1751C64.1013 14.3214 68.3991 14.7596 72.3049 16.4342C76.2106 18.1088 79.5489 20.9446 81.8977 24.583C84.2464 28.2214 85.5 32.4991 85.5 36.875C85.5 42.7429 83.248 48.3705 79.2394 52.5197C75.2308 56.669 69.794 59 64.125 59ZM128.25 140.125V132.75C128.25 119.058 122.995 105.927 113.642 96.2456C104.289 86.564 91.6027 81.125 78.375 81.125H49.875C36.6473 81.125 23.9614 86.564 14.608 96.2456C5.25467 105.927 0 119.058 0 132.75V140.125H14.25V132.75C14.25 122.97 18.0033 113.591 24.6843 106.675C31.3653 99.76 40.4267 95.875 49.875 95.875H78.375C87.8233 95.875 96.8847 99.76 103.566 106.675C110.247 113.591 114 122.97 114 132.75V140.125H128.25Z" fill="#5F91DE" fill-opacity="0.5"/>
<path d="M44.6172 6.62578C50.3931 2.63104 57.1819 0.5 64.125 0.5C73.4351 0.5 82.3674 4.32801 88.9561 11.1478C95.5453 17.9683 99.25 27.2223 99.25 36.875C99.25 44.0731 97.1878 51.1081 93.326 57.0905C89.4644 63.0727 83.9774 67.7325 77.5611 70.4835C71.1449 73.2344 64.0859 73.9539 57.2757 72.5517C50.4655 71.1496 44.2074 67.6881 39.2939 62.6022C34.3802 57.5161 31.0321 51.0339 29.6755 43.9746C28.3189 36.9152 29.0153 29.5981 31.676 22.9493C34.3366 16.3006 38.8411 10.6207 44.6172 6.62578ZM51.9653 55.6825C55.563 58.1707 59.7946 59.5 64.125 59.5C69.9323 59.5 75.4981 57.112 79.599 52.8671C83.6994 48.6229 86 42.8701 86 36.875C86 32.404 84.7192 28.032 82.3177 24.3118C79.9162 20.5915 76.5009 17.6892 72.5019 15.9746C68.5026 14.26 64.1009 13.811 59.8541 14.6854C55.6075 15.5598 51.7091 17.7175 48.651 20.8829C45.5931 24.0481 43.5125 28.0787 42.6697 32.4643C41.8269 36.8498 42.2593 41.3956 43.9129 45.5276C45.5664 49.6598 48.3678 53.1944 51.9653 55.6825ZM127.75 132.75V139.625H114.5V132.75C114.5 122.843 110.698 113.338 103.925 106.328C97.152 99.3171 87.9616 95.375 78.375 95.375H49.875C40.2884 95.375 31.098 99.3171 24.3247 106.328C17.552 113.338 13.75 122.843 13.75 132.75V139.625H0.5V132.75C0.5 119.185 5.70604 106.18 14.9676 96.593C24.2287 87.007 36.7856 81.625 49.875 81.625H78.375C91.4644 81.625 104.021 87.007 113.282 96.593C122.544 106.18 127.75 119.185 127.75 132.75Z" stroke="#E8F5FC" stroke-opacity="0.5"/>
</svg>
